<svg width="1307" height="202" viewBox="0 0 1307 202" fill="none" xmlns="http://www.w3.org/2000/svg">
					<g filter="url(#filter0_d_1755_1231)">
					<circle cx="284" cy="94.0002" r="73" fill="white"/>
					</g>
					<path d="M296.479 105.72V111H271.711V106.824L285.055 94.1522C286.559 92.7122 287.567 91.4642 288.079 90.4082C288.623 89.3202 288.895 88.2482 288.895 87.1922C288.895 85.6242 288.367 84.4242 287.311 83.5922C286.255 82.7602 284.703 82.3442 282.655 82.3442C279.231 82.3442 276.607 83.5122 274.783 85.8482L270.415 82.4882C271.727 80.7282 273.487 79.3682 275.695 78.4082C277.935 77.4162 280.431 76.9202 283.183 76.9202C286.831 76.9202 289.743 77.7842 291.919 79.5122C294.095 81.2402 295.183 83.5922 295.183 86.5682C295.183 88.3922 294.799 90.1042 294.031 91.7042C293.263 93.3042 291.791 95.1282 289.615 97.1762L280.639 105.72H296.479Z" fill="#034F9A"/>
					<path d="M376 93.0002C376 143.81 334.586 185 283.5 185C232.414 185 191 143.81 191 93.0002" stroke="#034F9A" stroke-dasharray="10 10"/>
					<g filter="url(#filter1_d_1755_1231)">
					<circle cx="654" cy="94.0002" r="73" fill="white"/>
					</g>
					<path d="M670.275 103.368H664.323V111H658.275V103.368H639.843V99.0482L656.403 77.4002H663.075L647.475 98.0882H658.467V91.3202H664.323V98.0882H670.275V103.368Z" fill="#034F9A"/>
					<path d="M746 93.0002C746 143.81 704.586 185 653.5 185C602.414 185 561 143.81 561 93.0002" stroke="#034F9A" stroke-dasharray="10 10"/>
					<g filter="url(#filter2_d_1755_1231)">
					<circle cx="1024" cy="94.0002" r="73" fill="white"/>
					</g>
					<path d="M1026.83 90.2642C1029.04 90.2642 1031.02 90.6962 1032.78 91.5602C1034.54 92.3922 1035.92 93.5922 1036.91 95.1602C1037.9 96.7282 1038.4 98.5362 1038.4 100.584C1038.4 102.76 1037.85 104.68 1036.77 106.344C1035.68 107.976 1034.21 109.24 1032.35 110.136C1030.49 111.032 1028.41 111.48 1026.11 111.48C1021.5 111.48 1017.92 110.04 1015.36 107.16C1012.83 104.28 1011.57 100.152 1011.57 94.7762C1011.57 91.0002 1012.25 87.7842 1013.63 85.1282C1015.01 82.4402 1016.93 80.4082 1019.39 79.0322C1021.89 77.6242 1024.77 76.9202 1028.03 76.9202C1029.76 76.9202 1031.37 77.1122 1032.88 77.4962C1034.41 77.8482 1035.74 78.3762 1036.86 79.0802L1034.56 83.7842C1032.89 82.6962 1030.77 82.1522 1028.17 82.1522C1024.94 82.1522 1022.41 83.1442 1020.59 85.1282C1018.77 87.1122 1017.85 89.9762 1017.85 93.7202V93.7682C1018.85 92.6162 1020.11 91.7522 1021.65 91.1762C1023.18 90.5682 1024.91 90.2642 1026.83 90.2642ZM1025.77 106.584C1027.73 106.584 1029.31 106.072 1030.53 105.048C1031.74 103.992 1032.35 102.6 1032.35 100.872C1032.35 99.1122 1031.74 97.7202 1030.53 96.6962C1029.31 95.6722 1027.68 95.1602 1025.63 95.1602C1023.61 95.1602 1021.97 95.7042 1020.69 96.7922C1019.44 97.8802 1018.81 99.2562 1018.81 100.92C1018.81 102.552 1019.42 103.912 1020.64 105C1021.89 106.056 1023.6 106.584 1025.77 106.584Z" fill="#034F9A"/>
					<g filter="url(#filter3_d_1755_1231)">
					<circle cx="469" cy="94.0004" r="73" fill="white"/>
					</g>
					<path d="M471.447 91.2724C474.551 91.6564 476.919 92.7124 478.551 94.4404C480.183 96.1684 480.999 98.3284 480.999 100.92C480.999 102.872 480.503 104.648 479.511 106.248C478.519 107.848 477.015 109.128 474.999 110.088C473.015 111.016 470.583 111.48 467.703 111.48C465.303 111.48 462.983 111.144 460.743 110.472C458.535 109.768 456.647 108.808 455.079 107.592L457.767 102.744C458.983 103.768 460.455 104.584 462.183 105.192C463.943 105.768 465.751 106.056 467.607 106.056C469.815 106.056 471.543 105.608 472.791 104.712C474.071 103.784 474.711 102.536 474.711 100.968C474.711 99.4004 474.103 98.1844 472.887 97.3204C471.703 96.4244 469.879 95.9764 467.415 95.9764H464.343V91.7044L471.975 82.6324H456.711V77.4004H479.607V81.5764L471.447 91.2724Z" fill="#034F9A"/>
					<path d="M1116 93.0002C1116 143.81 1074.59 185 1023.5 185C972.414 185 931 143.81 931 93.0002" stroke="#034F9A" stroke-dasharray="10 10"/>
					<path d="M561 93.0002C561 42.19 519.586 1.00024 468.5 1.00024C417.414 1.00024 376 42.1901 376 93.0003" stroke="#034F9A" stroke-dasharray="10 10"/>
					<g filter="url(#filter4_d_1755_1231)">
					<circle cx="839" cy="94.0004" r="73" fill="white"/>
					</g>
					<path d="M838.108 90.4084C842.844 90.4084 846.348 91.3364 848.62 93.1924C850.892 95.0164 852.028 97.5124 852.028 100.68C852.028 102.696 851.532 104.52 850.54 106.152C849.548 107.784 848.06 109.08 846.076 110.04C844.092 111 841.644 111.48 838.732 111.48C836.332 111.48 834.012 111.144 831.772 110.472C829.532 109.768 827.644 108.808 826.108 107.592L828.748 102.744C829.996 103.768 831.484 104.584 833.212 105.192C834.972 105.768 836.78 106.056 838.636 106.056C840.844 106.056 842.572 105.608 843.82 104.712C845.1 103.784 845.74 102.52 845.74 100.92C845.74 99.1924 845.052 97.8964 843.676 97.0324C842.332 96.1364 840.012 95.6884 836.716 95.6884H828.604L830.332 77.4004H850.06V82.6324H835.612L834.892 90.4084H838.108Z" fill="#034F9A"/>
					<path d="M931 93.0002C931 42.19 889.586 1.00024 838.5 1.00024C787.414 1.00024 746 42.1901 746 93.0003" stroke="#034F9A" stroke-dasharray="10 10"/>
					<g filter="url(#filter5_d_1755_1231)">
					<circle cx="1209" cy="94.0004" r="73" fill="white"/>
					</g>
					<path d="M1221.85 77.4004V81.5764L1208.8 111H1202.13L1214.75 82.6804H1201.55V88.3924H1195.74V77.4004H1221.85Z" fill="#034F9A"/>
					<path d="M1301 93.0002C1301 42.19 1259.59 1.00024 1208.5 1.00024C1157.41 1.00024 1116 42.1901 1116 93.0003" stroke="#034F9A" stroke-dasharray="10 10"/>
					<path d="M6 93.0002C6 42.19 47.4137 1.00024 98.5 1.00024C149.586 1.00024 191 42.19 191 93.0003" stroke="#034F9A" stroke-dasharray="10 10"/>
					<g filter="url(#filter6_d_1755_1231)">
					<circle cx="98" cy="94.0002" r="73" fill="white"/>
					</g>
					<path d="M103.087 77.4002V111H96.8474V82.6322H89.7434V77.4002H103.087Z" fill="#034F9A"/>
					<defs>
					<filter id="filter0_d_1755_1231" x="186" y="6.00024" width="196" height="196" filterUnits="userSpaceOnUse" color-interpolation-filters="sRGB">
					<feFlood flood-opacity="0" result="BackgroundImageFix"/>
					<feColorMatrix in="SourceAlpha" type="matrix" values="0 0 0 0 0 0 0 0 0 0 0 0 0 0 0 0 0 0 127 0" result="hardAlpha"/>
					<feOffset dy="10"/>
					<feGaussianBlur stdDeviation="12.5"/>
					<feColorMatrix type="matrix" values="0 0 0 0 0.567413 0 0 0 0 0.629465 0 0 0 0 0.670833 0 0 0 0.25 0"/>
					<feBlend mode="normal" in2="BackgroundImageFix" result="effect1_dropShadow_1755_1231"/>
					<feBlend mode="normal" in="SourceGraphic" in2="effect1_dropShadow_1755_1231" result="shape"/>
					</filter>
					<filter id="filter1_d_1755_1231" x="556" y="6.00024" width="196" height="196" filterUnits="userSpaceOnUse" color-interpolation-filters="sRGB">
					<feFlood flood-opacity="0" result="BackgroundImageFix"/>
					<feColorMatrix in="SourceAlpha" type="matrix" values="0 0 0 0 0 0 0 0 0 0 0 0 0 0 0 0 0 0 127 0" result="hardAlpha"/>
					<feOffset dy="10"/>
					<feGaussianBlur stdDeviation="12.5"/>
					<feColorMatrix type="matrix" values="0 0 0 0 0.567413 0 0 0 0 0.629465 0 0 0 0 0.670833 0 0 0 0.25 0"/>
					<feBlend mode="normal" in2="BackgroundImageFix" result="effect1_dropShadow_1755_1231"/>
					<feBlend mode="normal" in="SourceGraphic" in2="effect1_dropShadow_1755_1231" result="shape"/>
					</filter>
					<filter id="filter2_d_1755_1231" x="926" y="6.00024" width="196" height="196" filterUnits="userSpaceOnUse" color-interpolation-filters="sRGB">
					<feFlood flood-opacity="0" result="BackgroundImageFix"/>
					<feColorMatrix in="SourceAlpha" type="matrix" values="0 0 0 0 0 0 0 0 0 0 0 0 0 0 0 0 0 0 127 0" result="hardAlpha"/>
					<feOffset dy="10"/>
					<feGaussianBlur stdDeviation="12.5"/>
					<feColorMatrix type="matrix" values="0 0 0 0 0.567413 0 0 0 0 0.629465 0 0 0 0 0.670833 0 0 0 0.25 0"/>
					<feBlend mode="normal" in2="BackgroundImageFix" result="effect1_dropShadow_1755_1231"/>
					<feBlend mode="normal" in="SourceGraphic" in2="effect1_dropShadow_1755_1231" result="shape"/>
					</filter>
					<filter id="filter3_d_1755_1231" x="371" y="6.00037" width="196" height="196" filterUnits="userSpaceOnUse" color-interpolation-filters="sRGB">
					<feFlood flood-opacity="0" result="BackgroundImageFix"/>
					<feColorMatrix in="SourceAlpha" type="matrix" values="0 0 0 0 0 0 0 0 0 0 0 0 0 0 0 0 0 0 127 0" result="hardAlpha"/>
					<feOffset dy="10"/>
					<feGaussianBlur stdDeviation="12.5"/>
					<feColorMatrix type="matrix" values="0 0 0 0 0.567413 0 0 0 0 0.629465 0 0 0 0 0.670833 0 0 0 0.25 0"/>
					<feBlend mode="normal" in2="BackgroundImageFix" result="effect1_dropShadow_1755_1231"/>
					<feBlend mode="normal" in="SourceGraphic" in2="effect1_dropShadow_1755_1231" result="shape"/>
					</filter>
					<filter id="filter4_d_1755_1231" x="741" y="6.00037" width="196" height="196" filterUnits="userSpaceOnUse" color-interpolation-filters="sRGB">
					<feFlood flood-opacity="0" result="BackgroundImageFix"/>
					<feColorMatrix in="SourceAlpha" type="matrix" values="0 0 0 0 0 0 0 0 0 0 0 0 0 0 0 0 0 0 127 0" result="hardAlpha"/>
					<feOffset dy="10"/>
					<feGaussianBlur stdDeviation="12.5"/>
					<feColorMatrix type="matrix" values="0 0 0 0 0.567413 0 0 0 0 0.629465 0 0 0 0 0.670833 0 0 0 0.25 0"/>
					<feBlend mode="normal" in2="BackgroundImageFix" result="effect1_dropShadow_1755_1231"/>
					<feBlend mode="normal" in="SourceGraphic" in2="effect1_dropShadow_1755_1231" result="shape"/>
					</filter>
					<filter id="filter5_d_1755_1231" x="1111" y="6.00037" width="196" height="196" filterUnits="userSpaceOnUse" color-interpolation-filters="sRGB">
					<feFlood flood-opacity="0" result="BackgroundImageFix"/>
					<feColorMatrix in="SourceAlpha" type="matrix" values="0 0 0 0 0 0 0 0 0 0 0 0 0 0 0 0 0 0 127 0" result="hardAlpha"/>
					<feOffset dy="10"/>
					<feGaussianBlur stdDeviation="12.5"/>
					<feColorMatrix type="matrix" values="0 0 0 0 0.567413 0 0 0 0 0.629465 0 0 0 0 0.670833 0 0 0 0.25 0"/>
					<feBlend mode="normal" in2="BackgroundImageFix" result="effect1_dropShadow_1755_1231"/>
					<feBlend mode="normal" in="SourceGraphic" in2="effect1_dropShadow_1755_1231" result="shape"/>
					</filter>
					<filter id="filter6_d_1755_1231" x="0" y="6.00024" width="196" height="196" filterUnits="userSpaceOnUse" color-interpolation-filters="sRGB">
					<feFlood flood-opacity="0" result="BackgroundImageFix"/>
					<feColorMatrix in="SourceAlpha" type="matrix" values="0 0 0 0 0 0 0 0 0 0 0 0 0 0 0 0 0 0 127 0" result="hardAlpha"/>
					<feOffset dy="10"/>
					<feGaussianBlur stdDeviation="12.5"/>
					<feColorMatrix type="matrix" values="0 0 0 0 0.567413 0 0 0 0 0.629465 0 0 0 0 0.670833 0 0 0 0.25 0"/>
					<feBlend mode="normal" in2="BackgroundImageFix" result="effect1_dropShadow_1755_1231"/>
					<feBlend mode="normal" in="SourceGraphic" in2="effect1_dropShadow_1755_1231" result="shape"/>
					</filter>
					</defs>
				</svg>