<svg xmlns="http://www.w3.org/2000/svg" width="100" height="100" viewBox="0 0 100 100" fill="none">
  <path d="M50 65.625C48.922 65.625 48.0469 66.5001 48.0469 67.5781C48.0469 68.6562 48.922 69.5312 50 69.5312C51.078 69.5312 51.9531 68.6562 51.9531 67.5781C51.9531 66.5001 51.078 65.625 50 65.625Z" fill="#034F9A"/>
  <path d="M94.1406 26.5625H63.6719V12.8906C63.6719 9.65958 61.0435 7.03125 57.8125 7.03125H5.85938C2.62833 7.03125 0 9.65958 0 12.8906V55.8594C0 59.0904 2.62833 61.7188 5.85938 61.7188H12.3047V71.4844C12.3047 72.2046 12.7014 72.8661 13.3362 73.2063C13.9694 73.5458 14.74 73.51 15.3412 73.1094L32.4272 61.7188H36.3281V75.3906C36.3281 78.6217 38.9565 81.25 42.1875 81.25H68.1587L85.2448 92.6407C85.8345 93.0344 86.6058 93.0824 87.2498 92.7376C87.8845 92.3973 88.2812 91.7358 88.2812 91.0156V81.25H94.1406C97.3717 81.25 100 78.6217 100 75.3906V32.4219C100 29.1908 97.3717 26.5625 94.1406 26.5625ZM31.8359 57.8125C31.4507 57.8125 31.0738 57.9269 30.7526 58.1406L16.2109 67.8345V59.7656C16.2109 58.6868 15.3366 57.8125 14.2578 57.8125H5.85938C4.7821 57.8125 3.90625 56.9366 3.90625 55.8594V12.8906C3.90625 11.8134 4.7821 10.9375 5.85938 10.9375H57.8125C58.8898 10.9375 59.7656 11.8134 59.7656 12.8906V55.8594C59.7656 56.9366 58.8898 57.8125 57.8125 57.8125H31.8359ZM96.0938 75.3906C96.0938 76.4679 95.2179 77.3438 94.1406 77.3438H86.3281C85.2493 77.3438 84.375 78.2181 84.375 79.2969V87.3657L69.8334 77.6718C69.5122 77.4574 69.1353 77.3438 68.75 77.3438H42.1875C41.1102 77.3438 40.2344 76.4671 40.2344 75.3906V61.7188H57.8125C60.3584 61.7188 62.5298 60.0853 63.3362 57.8125H86.3281C87.4069 57.8125 88.2812 56.9374 88.2812 55.8594C88.2812 54.7806 87.4069 53.9062 86.3281 53.9062H63.6719V46.0938H86.3281C87.4069 46.0938 88.2812 45.2187 88.2812 44.1406C88.2812 43.0618 87.4069 42.1875 86.3281 42.1875H63.6719V30.4688H94.1406C95.2179 30.4688 96.0938 31.3446 96.0938 32.4219V75.3906Z" fill="#1D1D1D"/>
  <path fill-rule="evenodd" clip-rule="evenodd" d="M63.6719 26.5625H94.1406C97.3717 26.5625 100 29.1908 100 32.4219V75.3906C100 78.6217 97.3717 81.25 94.1406 81.25H88.2812V91.0156C88.2812 91.7358 87.8845 92.3973 87.2498 92.7376C86.6058 93.0824 85.8345 93.0344 85.2448 92.6407L68.1587 81.25H42.1875C38.9565 81.25 36.3281 78.6217 36.3281 75.3906V61.7188H40.2344V75.3906C40.2344 76.4671 41.1102 77.3438 42.1875 77.3438H68.75C69.1353 77.3438 69.5122 77.4574 69.8334 77.6718L84.375 87.3657V79.2969C84.375 78.2181 85.2493 77.3438 86.3281 77.3438H94.1406C95.2179 77.3438 96.0938 76.4679 96.0938 75.3906V32.4219C96.0938 31.3446 95.2179 30.4688 94.1406 30.4688H63.6719V26.5625ZM63.6719 42.1875V46.0938H86.3281C87.4069 46.0938 88.2812 45.2187 88.2812 44.1406C88.2812 43.0618 87.4069 42.1875 86.3281 42.1875H63.6719ZM63.6719 53.9062L63.3362 57.8125H86.3281C87.4069 57.8125 88.2812 56.9374 88.2812 55.8594C88.2812 54.7806 87.4069 53.9062 86.3281 53.9062H63.6719Z" fill="#034F9A"/>
  <path d="M86.3281 65.625H57.8125C56.7337 65.625 55.8594 66.4993 55.8594 67.5781C55.8594 68.6569 56.7337 69.5312 57.8125 69.5312H86.3281C87.4069 69.5312 88.2812 68.6569 88.2812 67.5781C88.2812 66.4993 87.4069 65.625 86.3281 65.625Z" fill="#1D1D1D"/>
  <path d="M41.3625 48.3635C41.9645 47.9264 42.2651 47.1855 42.14 46.4531L40.698 38.057L46.7985 32.1114C47.331 31.5934 47.5225 30.8167 47.2929 30.1094C47.0632 29.4022 46.4521 28.8872 45.7159 28.7804L37.2869 27.5566L33.5172 19.9173C33.1884 19.2505 32.5086 18.8286 31.7655 18.8286C31.0224 18.8286 30.3434 19.2505 30.0146 19.9173L26.2441 27.5566L17.8152 28.7804C17.0789 28.8872 16.4678 29.4022 16.2382 30.1094C16.0085 30.8167 16.2 31.5934 16.7326 32.1114L22.833 38.057L21.3934 46.4531C21.2675 47.1863 21.5688 47.9264 22.1708 48.3635C22.772 48.8007 23.5693 48.8579 24.2277 48.5123L31.7655 44.5488L39.3057 48.5123C39.9648 48.8587 40.7629 48.7992 41.3625 48.3635ZM32.6742 40.6128C32.105 40.3137 31.4253 40.3137 30.8561 40.6128L25.9123 43.2129L26.8568 37.7053C26.9651 37.072 26.7545 36.425 26.2945 35.9764L22.2936 32.0771L27.8211 31.2752C28.4574 31.1821 29.0075 30.7831 29.2921 30.2063L31.7655 25.1946L34.239 30.2063C34.5236 30.7831 35.0736 31.1821 35.7099 31.2752L41.2374 32.0771L37.2366 35.9764C36.7758 36.425 36.5659 37.072 36.675 37.706L37.6203 43.2129L32.6742 40.6128Z" fill="#034F9A"/>
</svg>