<svg width="20" height="20" viewBox="0 0 20 20" fill="none" xmlns="http://www.w3.org/2000/svg">
<path d="M15.9814 2.47758C14.3837 0.879884 12.2595 0 10 0C7.74055 0 5.61625 0.879884 4.0186 2.47758C2.4209 4.07532 1.54102 6.19954 1.54102 8.45896C1.54102 13.0298 5.86282 16.8315 8.18465 18.8739C8.50731 19.1578 8.78594 19.4029 9.00794 19.6102C9.28606 19.87 9.64305 20 9.99997 20C10.357 20 10.7139 19.87 10.992 19.6102C11.214 19.4028 11.4927 19.1578 11.8153 18.8739C14.1372 16.8315 18.459 13.0298 18.459 8.45896C18.4589 6.19954 17.5791 4.07532 15.9814 2.47758ZM11.0415 17.9943C10.7118 18.2844 10.427 18.5349 10.1923 18.7541C10.0844 18.8548 9.91551 18.8548 9.80762 18.7541C9.5729 18.5348 9.28813 18.2843 8.9584 17.9943C6.77559 16.0742 2.7125 12.5 2.7125 8.459C2.7125 4.44071 5.9816 1.1716 9.99993 1.1716C14.0182 1.1716 17.2873 4.44071 17.2873 8.459C17.2874 12.5 13.2243 16.0742 11.0415 17.9943Z" fill="#1D1D1D"/>
<path d="M10.0002 4.41162C7.94473 4.41162 6.27246 6.08385 6.27246 8.13936C6.27246 10.1949 7.94473 11.8671 10.0002 11.8671C12.0558 11.8671 13.728 10.1949 13.728 8.13936C13.728 6.08385 12.0558 4.41162 10.0002 4.41162ZM10.0002 10.6955C8.59075 10.6955 7.44403 9.54878 7.44403 8.13932C7.44403 6.72987 8.59075 5.58315 10.0002 5.58315C11.4097 5.58315 12.5564 6.72987 12.5564 8.13932C12.5564 9.54878 11.4097 10.6955 10.0002 10.6955Z" fill="#1D1D1D"/>
</svg>
