<svg xmlns="http://www.w3.org/2000/svg" width="100" height="100" viewBox="0 0 100 100" fill="none">
  <g clip-path="url(#clip0_1755_1030)">
    <path d="M20.8984 37.1094C20.8984 53.2639 34.0409 66.4063 50.1954 66.4063C66.3499 66.4063 79.4923 53.2639 79.4923 37.1094C79.4923 20.9549 66.3499 7.8125 50.1954 7.8125C34.0409 7.8125 20.8984 20.9549 20.8984 37.1094ZM50.1954 11.7188C64.1961 11.7188 75.586 23.1087 75.586 37.1094C75.586 51.1101 64.1961 62.5001 50.1954 62.5001C36.1946 62.5001 24.8047 51.1101 24.8047 37.1094C24.8047 23.1087 36.1946 11.7188 50.1954 11.7188Z" fill="#034F9A"/>
    <path d="M32.1069 33.6272L39.6775 41.0865L37.9357 51.5701C37.8144 52.3002 38.1158 53.0357 38.7147 53.4706C39.3129 53.9054 40.1055 53.9642 40.7624 53.6239L50.1947 48.7258L59.6262 53.6239C60.2777 53.9619 61.0704 53.9092 61.6739 53.4706C62.2728 53.0357 62.5742 52.3002 62.4529 51.5701L60.7111 41.0865L68.2817 33.6272C68.8089 33.1084 68.9974 32.3363 68.7685 31.6321C68.5396 30.9287 67.9331 30.4152 67.2014 30.3046L56.6949 28.723L51.9411 19.216C51.6107 18.5546 50.934 18.1365 50.1947 18.1365C49.4546 18.1365 48.7787 18.5546 48.4475 19.216L43.6937 28.723L33.1872 30.3046C32.4555 30.4145 31.849 30.9287 31.6201 31.6321C31.3912 32.3363 31.5804 33.1084 32.1069 33.6272ZM45.2783 32.4348C45.907 32.3401 46.4502 31.9457 46.7347 31.3773L50.1947 24.4567L53.6546 31.3773C53.9392 31.9457 54.4824 32.3401 55.1111 32.4348L62.758 33.586L57.2473 39.0144C56.7949 39.4607 56.5874 40.0993 56.6911 40.7264L57.9591 48.3566L51.0942 44.7921C50.8127 44.6456 50.5037 44.5724 50.1947 44.5724C49.8857 44.5724 49.5767 44.6456 49.2944 44.7921L42.4295 48.3566L43.6975 40.7264C43.802 40.0993 43.5945 39.4607 43.1413 39.0144L37.6313 33.586L45.2783 32.4348Z" fill="#034F9A"/>
    <path d="M52.1484 1.95313C52.1484 3.03193 51.2741 3.90626 50.1953 3.90626C49.1165 3.90626 48.2422 3.03193 48.2422 1.95313C48.2422 0.87433 49.1165 0 50.1953 0C51.2741 0 52.1484 0.87433 52.1484 1.95313Z" fill="#034F9A"/>
    <path d="M40.9905 1.15134C24.5606 5.34522 13.0859 20.1318 13.0859 37.1095C13.0859 47.6541 17.5194 57.5899 25.3021 64.6265L13.5353 85.3639C13.1569 86.0315 13.2042 86.8586 13.6559 87.4781C14.1075 88.0983 14.8796 88.3966 15.6311 88.2402L28.994 85.4654L33.6907 98.7001C33.9455 99.4204 34.5978 99.9247 35.3592 99.9926C36.1206 100.06 36.8508 99.6767 37.2284 99.0122L50.1954 76.2155L63.1615 99.0122C63.511 99.6264 64.161 99.9994 64.8583 99.9994C64.9155 99.9994 64.9735 99.9971 65.0308 99.9926C65.7922 99.9247 66.4445 99.4196 66.7001 98.7001L71.396 85.4654L84.7589 88.2402C85.5096 88.3959 86.2825 88.0976 86.7341 87.4781C87.1865 86.8586 87.2331 86.0315 86.8547 85.3639L75.0878 64.6265C82.8706 57.5899 87.304 47.6541 87.304 37.1095C87.304 20.1318 75.8294 5.34522 59.4002 1.15134C58.3543 0.884307 57.2915 1.51526 57.0245 2.56049C56.7574 3.60572 57.3884 4.66925 58.4336 4.93628C73.1324 8.68843 83.3985 21.9186 83.3985 37.1095C83.3985 55.5978 68.3831 70.3127 50.1954 70.3127C31.9947 70.3127 16.9922 55.5856 16.9922 37.1095C16.9922 21.9186 27.2576 8.68843 41.9564 4.93628C43.0016 4.66925 43.6326 3.60572 43.3663 2.56049C43.0993 1.51526 42.0365 0.884307 40.9905 1.15134ZM35.9444 93.3702L32.106 82.554C31.7795 81.6339 30.8243 81.0961 29.8683 81.2944L19.0628 83.5382L28.3753 67.1259C33.8051 71.0733 40.2344 73.4781 46.9201 74.0732L35.9444 93.3702ZM70.5216 81.2944C69.5664 81.0961 68.6105 81.6339 68.2839 82.554L64.4463 93.3702L53.4699 74.0732C60.1563 73.4781 66.5849 71.0733 72.0155 67.1259L81.3279 83.5382L70.5216 81.2944Z" fill="#1D1D1D"/>
  </g>
  <defs>
    <clipPath id="clip0_1755_1030">
      <rect width="100" height="100" fill="white"/>
    </clipPath>
  </defs>
</svg>