<svg xmlns="http://www.w3.org/2000/svg" width="100" height="100" viewBox="0 0 100 100" fill="none">
  <g clip-path="url(#clip0_1755_1038)">
    <path d="M92.145 20.074L83.6722 18.4719V7.97872C83.6722 3.57915 80.093 0 75.6935 0H24.3067C19.9071 0 16.3279 3.57915 16.3279 7.97872V18.4719L7.85071 20.0751C4.06624 20.8017 0.987305 24.5281 0.987305 28.3817V92.7338C0.987305 96.7404 4.24667 100 8.25347 100H91.7467C95.7533 100 99.0128 96.7404 99.0128 92.7338V28.3817C99.0128 24.5281 95.9341 20.8017 92.145 20.074ZM19.5194 7.97872C19.5194 5.33894 21.6669 3.19149 24.3067 3.19149H75.6935C78.333 3.19149 80.4807 5.33894 80.4807 7.97872V18.9189L64.0445 29.3964L57.5124 19.1496L72.9233 9.32404C73.6662 8.85021 73.8848 7.86362 73.4109 7.12064C72.9369 6.37745 71.9507 6.15915 71.2075 6.63298L54.8437 17.0662H45.1567L28.7941 6.63362C28.0507 6.16 27.0645 6.3783 26.5907 7.12128C26.1169 7.86447 26.3352 8.85085 27.0784 9.32468L42.4879 19.1496L35.9558 29.3964L19.5196 18.9189L19.5194 7.97872ZM26.6788 27.2677L35.5856 32.9455C36.3288 33.4194 37.3154 33.2009 37.789 32.4579L40.0682 28.8826L43.8011 38.0662L38.943 69.9955C38.8105 70.8668 39.4092 71.6806 40.2807 71.8132C40.362 71.8255 40.4428 71.8315 40.5226 71.8315C41.2979 71.8315 41.9779 71.2655 42.0982 70.4755L46.8162 39.4677H53.1843L57.9024 70.4755C58.0226 71.2653 58.7028 71.8315 59.4781 71.8315C59.5579 71.8315 59.6388 71.8255 59.7201 71.8132C60.5916 71.6806 61.1903 70.8668 61.0577 69.9955L56.1992 38.066L59.932 28.8826L62.2109 32.4577C62.5152 32.9349 63.0309 33.1957 63.5579 33.1957C63.8516 33.1957 64.1484 33.1149 64.4141 32.9453L73.3211 27.2674V54.3149C73.3211 67.1743 62.8592 77.6362 49.9999 77.6362C37.1405 77.6362 26.6786 67.1743 26.6786 54.3149L26.6788 27.2677ZM45.5662 20.2579H54.4339L57.8284 25.5826L53.4816 36.2762H46.5186L42.1718 25.5823L45.5662 20.2579ZM95.8213 92.7338C95.8213 94.9806 93.9935 96.8085 91.7467 96.8085H8.25347C6.00667 96.8085 4.17879 94.9806 4.17879 92.7338V28.3817C4.17879 26.0228 6.13603 23.654 8.44816 23.21L17.599 21.4796L23.4873 25.2332V54.3151C23.4873 68.9343 35.3809 80.8279 50.0001 80.8279C64.6192 80.8279 76.5128 68.9343 76.5128 54.3151V25.233L82.4009 21.4796L91.5475 23.2092C93.8641 23.654 95.8213 26.0228 95.8213 28.3817V92.7338Z" fill="#1D1D1D"/>
    <path fill-rule="evenodd" clip-rule="evenodd" d="M26.6788 27.2677L23.4873 25.2332V54.3151C23.4873 68.9343 35.3809 80.8279 50.0001 80.8279C64.6192 80.8279 76.5128 68.9343 76.5128 54.3151V25.233L73.3211 27.2674V54.3149C73.3211 67.1743 62.8592 77.6362 49.9999 77.6362C37.1405 77.6362 26.6786 67.1743 26.6786 54.3149L26.6788 27.2677ZM59.932 28.8826L57.8284 25.5826L53.4816 36.2762H46.5186L42.1718 25.5823L40.0682 28.8826L43.8011 38.0662L38.943 69.9955C38.8105 70.8668 39.4092 71.6806 40.2807 71.8132C40.362 71.8255 40.4428 71.8315 40.5226 71.8315C41.2979 71.8315 41.9779 71.2655 42.0982 70.4755L46.8162 39.4677H53.1843L57.9024 70.4755C58.0226 71.2653 58.7028 71.8315 59.4781 71.8315C59.5579 71.8315 59.6388 71.8255 59.7201 71.8132C60.5916 71.6806 61.1903 70.8668 61.0577 69.9955L56.1992 38.066L59.932 28.8826Z" fill="#034F9A"/>
    <path d="M85.1065 78.5042C85.9878 78.5042 86.7022 77.7898 86.7022 76.9085C86.7022 76.0272 85.9878 75.3127 85.1065 75.3127C84.2252 75.3127 83.5107 76.0272 83.5107 76.9085C83.5107 77.7898 84.2252 78.5042 85.1065 78.5042Z" fill="#034F9A"/>
    <path d="M78.7237 84.8873C79.605 84.8873 80.3194 84.1729 80.3194 83.2915C80.3194 82.4102 79.605 81.6958 78.7237 81.6958C77.8424 81.6958 77.1279 82.4102 77.1279 83.2915C77.1279 84.1729 77.8424 84.8873 78.7237 84.8873Z" fill="#034F9A"/>
  </g>
  <defs>
    <clipPath id="clip0_1755_1038">
      <rect width="100" height="100" fill="white"/>
    </clipPath>
  </defs>
</svg>