<svg xmlns="http://www.w3.org/2000/svg" width="100" height="100" viewBox="0 0 100 100" fill="none">
  <g clip-path="url(#clip0_1755_1014)">
    <path d="M49.999 86.1208C69.9151 86.1208 86.1179 69.9178 86.1179 50.0018C86.1179 30.0858 69.9151 13.8829 49.999 13.8829C30.083 13.8829 13.88 30.0858 13.88 50.0018C13.88 69.9178 30.083 86.1208 49.999 86.1208ZM49.999 17.8196C67.7443 17.8196 82.1812 32.2565 82.1812 50.0018C82.1812 67.7471 67.7443 82.1841 49.999 82.1841C32.2536 82.1841 17.8167 67.7471 17.8167 50.0018C17.8167 32.2565 32.2536 17.8196 49.999 17.8196ZM25.2653 48.2303H27.6292C27.5834 48.8149 27.56 49.4056 27.56 50.0018C27.56 50.7321 27.595 51.4543 27.6637 52.167H25.2655C24.2171 52.167 23.3017 52.9581 23.234 54.0044C23.1597 55.1508 24.0675 56.1037 25.198 56.1037H28.403C31.0673 65.521 39.7402 72.4408 49.999 72.4408C54.792 72.4408 59.3604 70.9337 63.2328 68.1137C64.1152 67.471 64.4448 66.1695 63.6753 65.3865L58.9877 58.9873C58.3589 58.1287 57.1542 57.9391 56.2539 58.5863C54.4159 59.9075 52.2649 60.6308 49.999 60.6308C46.4067 60.6308 43.2251 58.8397 41.3003 56.1037H51.5063C52.5546 56.1037 53.4701 55.3126 53.5378 54.2662C53.612 53.1199 52.704 52.167 51.5738 52.167H39.5916C39.4463 51.4678 39.37 50.7435 39.37 50.0018C39.37 49.3983 39.4205 48.8067 39.5176 48.2303H51.5061C52.5544 48.2303 53.4699 47.4393 53.5376 46.3929C53.6118 45.2465 52.7038 44.2937 51.5736 44.2937H41.0362C42.9258 41.337 46.2373 39.3728 49.999 39.3728C52.4895 39.3728 54.8229 40.2125 56.7468 41.8008C57.5847 42.493 58.8259 42.3745 59.5176 41.536L64.5304 35.4647C65.2226 34.6264 65.1041 33.3858 64.2658 32.6937C60.2585 29.3849 55.1914 27.5628 49.999 27.5628C39.5979 27.5628 30.827 34.6762 28.2955 44.2937H25.198C24.0675 44.2937 23.1597 45.2465 23.234 46.3929C23.3017 47.4393 24.2169 48.2303 25.2653 48.2303ZM49.999 31.4995C53.6201 31.4995 57.1672 32.5746 60.1743 34.5577L57.6526 37.6118C55.3621 36.183 52.7509 35.4362 49.9988 35.4362C41.9672 35.4362 35.4331 41.9702 35.4331 50.0018C35.4331 58.0334 41.9672 64.5675 49.9988 64.5675C52.4432 64.5675 54.8005 63.9676 56.9143 62.8188L59.2574 66.0176C56.4519 67.6497 53.2873 68.5042 49.9988 68.5042C39.7965 68.5042 31.4964 60.2041 31.4964 50.0018C31.4964 39.7996 39.7969 31.4995 49.999 31.4995ZM16.1739 17.9792C16.1739 19.0663 15.2927 19.9475 14.2056 19.9475C13.1185 19.9475 12.2373 19.0663 12.2373 17.9792C12.2373 16.8921 13.1185 16.0109 14.2056 16.0109C15.2927 16.0107 16.1739 16.8921 16.1739 17.9792ZM21.8872 13.5148C42.0361 -2.01236 70.9546 1.7383 86.4818 21.8871C102.009 42.036 98.2625 70.9573 78.1136 86.4847C57.9648 102.012 29.0435 98.2654 13.5161 78.1165C1.56339 62.6061 1.03646 41.9 10.6165 26.1043C11.1813 25.1754 10.886 23.9645 9.95715 23.3998C9.02829 22.8351 7.81737 23.1303 7.25266 24.0592C-3.14802 41.2054 -2.5772 63.6823 10.3981 80.5195C27.2525 102.39 58.6457 106.457 80.5168 89.6029C102.388 72.7485 106.455 41.3553 89.6003 19.4842C72.7458 -2.38694 41.3464 -6.46139 19.4799 10.399C18.619 11.0627 18.4603 12.3 19.1245 13.1605C19.7884 14.0213 21.0265 14.179 21.8872 13.5148Z" fill="#1D1D1D"/>
    <path fill-rule="evenodd" clip-rule="evenodd" d="M25.2653 48.2303H27.6292C27.5834 48.8149 27.56 49.4056 27.56 50.0018C27.56 50.7321 27.595 51.4543 27.6637 52.167H25.2655C24.2171 52.167 23.3017 52.9581 23.234 54.0044C23.1597 55.1508 24.0675 56.1037 25.198 56.1037H28.403C31.0673 65.521 39.7402 72.4408 49.999 72.4408C54.792 72.4408 59.3604 70.9337 63.2328 68.1137C64.1152 67.471 64.4448 66.1695 63.6753 65.3865L58.9877 58.9873C58.3589 58.1287 57.1542 57.9391 56.2539 58.5863C54.4159 59.9075 52.2649 60.6308 49.999 60.6308C46.4067 60.6308 43.2251 58.8397 41.3003 56.1037H51.5063C52.5546 56.1037 53.4701 55.3126 53.5378 54.2662C53.612 53.1199 52.704 52.167 51.5738 52.167H39.5916C39.4463 51.4678 39.37 50.7435 39.37 50.0018C39.37 49.3983 39.4205 48.8067 39.5176 48.2303H51.5061C52.5544 48.2303 53.4699 47.4393 53.5376 46.3929C53.6118 45.2465 52.7038 44.2937 51.5736 44.2937H41.0362C42.9258 41.337 46.2373 39.3728 49.999 39.3728C52.4895 39.3728 54.8229 40.2125 56.7468 41.8008C57.5847 42.493 58.8259 42.3745 59.5176 41.536L64.5304 35.4647C65.2226 34.6264 65.1041 33.3858 64.2658 32.6937C60.2585 29.3849 55.1914 27.5628 49.999 27.5628C39.5979 27.5628 30.827 34.6762 28.2955 44.2937H25.198C24.0675 44.2937 23.1597 45.2465 23.234 46.3929C23.3017 47.4393 24.2169 48.2303 25.2653 48.2303ZM49.999 31.4995C53.6201 31.4995 57.1672 32.5746 60.1743 34.5577L57.6526 37.6118C55.3621 36.183 52.7509 35.4362 49.9988 35.4362C41.9672 35.4362 35.4331 41.9702 35.4331 50.0018C35.4331 58.0334 41.9672 64.5675 49.9988 64.5675C52.4432 64.5675 54.8005 63.9676 56.9143 62.8188L59.2574 66.0176C56.4519 67.6497 53.2873 68.5042 49.9988 68.5042C39.7965 68.5042 31.4964 60.2041 31.4964 50.0018C31.4964 39.7996 39.7969 31.4995 49.999 31.4995ZM16.1739 17.9792C16.1739 19.0663 15.2927 19.9475 14.2056 19.9475C13.1185 19.9475 12.2373 19.0663 12.2373 17.9792C12.2373 16.8921 13.1185 16.0109 14.2056 16.0109C15.2927 16.0107 16.1739 16.8921 16.1739 17.9792Z" fill="#034F9A"/>
    <path fill-rule="evenodd" clip-rule="evenodd" d="M49.999 86.1208C69.9151 86.1208 86.1179 69.9178 86.1179 50.0018C86.1179 30.0858 69.9151 13.8829 49.999 13.8829C30.083 13.8829 13.88 30.0858 13.88 50.0018C13.88 69.9178 30.083 86.1208 49.999 86.1208ZM82.1812 50.0018C82.1812 32.2565 67.7443 17.8196 49.999 17.8196C32.2536 17.8196 17.8167 32.2565 17.8167 50.0018C17.8167 67.7471 32.2536 82.1841 49.999 82.1841C67.7443 82.1841 82.1812 67.7471 82.1812 50.0018Z" fill="#034F9A"/>
  </g>
  <defs>
    <clipPath id="clip0_1755_1014">
      <rect width="100" height="100" fill="white"/>
    </clipPath>
  </defs>
</svg>